<svg width="14" height="14" viewBox="0 0 14 14" fill="none" xmlns="http://www.w3.org/2000/svg">
<g clip-path="url(#clip0)">
<path d="M13.3637 0H8.27279C7.92134 0 7.63642 0.284922 7.63642 0.636371C7.63642 0.98782 7.92134 1.27274 8.27279 1.27274H11.8274L5.2774 7.82277C5.02887 8.0713 5.02887 8.47418 5.2774 8.72271C5.40162 8.84696 5.56448 8.90909 5.72734 8.90909C5.8902 8.90909 6.05308 8.84699 6.17733 8.72268L12.7274 2.17268V5.72729C12.7274 6.07873 13.0123 6.36366 13.3637 6.36366C13.7152 6.36366 14.0001 6.07873 14.0001 5.72729V0.636371C14.0001 0.284922 13.7152 0 13.3637 0Z" fill="#94959E"/>
<path d="M10.8182 6.36361C10.4667 6.36361 10.1818 6.64853 10.1818 6.99998V12.7273H1.27271V3.81816H7C7.35145 3.81816 7.63637 3.53323 7.63637 3.18178C7.63637 2.83034 7.35145 2.54544 7 2.54544H0.636371C0.284922 2.54544 0 2.83036 0 3.18181V13.3636C0 13.7151 0.284922 14 0.636371 14H10.8182C11.1696 14 11.4546 13.7151 11.4546 13.3636V6.99998C11.4545 6.64853 11.1696 6.36361 10.8182 6.36361Z" fill="#94959E"/>
</g>
<defs>
<clipPath id="clip0">
<rect width="14" height="14" fill="white"/>
</clipPath>
</defs>
</svg>
