<svg width="16" height="16" viewBox="0 0 16 16" fill="none" xmlns="http://www.w3.org/2000/svg">
<path d="M10.9282 9.4944C12.8488 6.78231 12.2065 3.02685 9.4944 1.10668C6.78231 -0.813486 3.02685 -0.171595 1.10668 2.54096C-0.813486 5.25305 -0.171595 9.00805 2.54096 10.9282C4.47673 12.2987 7.03603 12.4042 9.07779 11.1985L13.5141 15.6082C13.9931 16.1124 14.7901 16.1326 15.2944 15.6536C15.7986 15.1751 15.8188 14.3781 15.3402 13.8739C15.3251 13.8578 15.3104 13.8431 15.2944 13.828L10.9282 9.4944ZM6.01378 9.9055C3.87062 9.90596 2.13307 8.16978 2.13169 6.02663C2.13123 3.88347 3.86741 2.14591 6.01103 2.145C8.15143 2.14408 9.88807 3.87751 9.8922 6.01791C9.89587 8.16152 8.16061 9.90183 6.01653 9.9055C6.01562 9.9055 6.01516 9.9055 6.01378 9.9055Z" fill="#F9F9F9"/>
</svg>
